<svg width="74" height="74" viewBox="0 0 74 74" fill="none" xmlns="http://www.w3.org/2000/svg"
>

    <!--SKILLS-->


    <g id="TypeScript">
        <path fill-rule="nonzero" clip-rule="nonzero"
              d="M0 1.75C0 0.783501 0.783502 0 1.75 0H14.25C15.2165 0 16 0.783502 16 1.75V3.75C16 4.16421 15.6642 4.5 15.25 4.5C14.8358 4.5 14.5 4.16421 14.5 3.75V1.75C14.5 1.61193 14.3881 1.5 14.25 1.5H1.75C1.61193 1.5 1.5 1.61193 1.5 1.75V14.25C1.5 14.3881 1.61193 14.5 1.75 14.5H15.25C15.6642 14.5 16 14.8358 16 15.25C16 15.6642 15.6642 16 15.25 16H1.75C0.783501 16 0 15.2165 0 14.25V1.75ZM4.75 6.5C4.75 6.08579 5.08579 5.75 5.5 5.75H9.25C9.66421 5.75 10 6.08579 10 6.5C10 6.91421 9.66421 7.25 9.25 7.25H8.25V12.5C8.25 12.9142 7.91421 13.25 7.5 13.25C7.08579 13.25 6.75 12.9142 6.75 12.5V7.25H5.5C5.08579 7.25 4.75 6.91421 4.75 6.5ZM11.2757 6.58011C11.6944 6.08164 12.3507 5.75 13.25 5.75C14.0849 5.75 14.7148 6.03567 15.1394 6.48481C15.4239 6.78583 15.4105 7.26052 15.1095 7.54505C14.8085 7.82958 14.3338 7.81621 14.0493 7.51519C13.9394 7.39898 13.7204 7.25 13.25 7.25C12.7493 7.25 12.5306 7.41836 12.4243 7.54489C12.2934 7.70065 12.25 7.896 12.25 8C12.25 8.104 12.2934 8.29935 12.4243 8.45511C12.5306 8.58164 12.7493 8.75 13.25 8.75C13.3257 8.75 13.3988 8.76121 13.4676 8.78207C14.1307 8.87646 14.6319 9.17251 14.9743 9.58011C15.3684 10.0493 15.5 10.604 15.5 11C15.5 11.396 15.3684 11.9507 14.9743 12.4199C14.5556 12.9184 13.8993 13.25 13 13.25C12.1651 13.25 11.5352 12.9643 11.1106 12.5152C10.8261 12.2142 10.8395 11.7395 11.1405 11.4549C11.4415 11.1704 11.9162 11.1838 12.2007 11.4848C12.3106 11.601 12.5296 11.75 13 11.75C13.5007 11.75 13.7194 11.5816 13.8257 11.4551C13.9566 11.2993 14 11.104 14 11C14 10.896 13.9566 10.7007 13.8257 10.5449C13.7194 10.4184 13.5007 10.25 13 10.25C12.9243 10.25 12.8512 10.2388 12.7824 10.2179C12.1193 10.1235 11.6181 9.82749 11.2757 9.41989C10.8816 8.95065 10.75 8.396 10.75 8C10.75 7.604 10.8816 7.04935 11.2757 6.58011Z"
              fill="#000000"/>
    </g>

    <g id="JavaScript">
        <path fill-rule="nonzero" clip-rule="nonzero"
              d="M0 1.75C0 0.783501 0.783502 0 1.75 0H14.25C15.2165 0 16 0.783502 16 1.75V3.75C16 4.16421 15.6642 4.5 15.25 4.5C14.8358 4.5 14.5 4.16421 14.5 3.75V1.75C14.5 1.61193 14.3881 1.5 14.25 1.5H1.75C1.61193 1.5 1.5 1.61193 1.5 1.75V14.25C1.5 14.3881 1.61193 14.5 1.75 14.5H15.25C15.6642 14.5 16 14.8358 16 15.25C16 15.6642 15.6642 16 15.25 16H1.75C0.783501 16 0 15.2165 0 14.25V1.75ZM8.25 5.75C8.66421 5.75 9 6.08579 9 6.5V10.5C9 11.5048 8.72399 12.2584 8.15514 12.7324C7.61223 13.1848 6.95384 13.25 6.5 13.25C6.08579 13.25 5.75 12.9142 5.75 12.5C5.75 12.0858 6.08579 11.75 6.5 11.75C6.84617 11.75 7.06277 11.6902 7.19486 11.5801C7.301 11.4916 7.5 11.2452 7.5 10.5V6.5C7.5 6.08579 7.83578 5.75 8.25 5.75ZM11.2757 6.58011C11.6944 6.08164 12.3507 5.75 13.25 5.75C14.0849 5.75 14.7148 6.03567 15.1394 6.48481C15.4239 6.78583 15.4105 7.26052 15.1095 7.54505C14.8085 7.82958 14.3338 7.81621 14.0493 7.51519C13.9394 7.39898 13.7204 7.25 13.25 7.25C12.7493 7.25 12.5306 7.41836 12.4243 7.54489C12.2934 7.70065 12.25 7.896 12.25 8C12.25 8.104 12.2934 8.29935 12.4243 8.45511C12.5306 8.58164 12.7493 8.75 13.25 8.75C13.3257 8.75 13.3988 8.76121 13.4676 8.78207C14.1307 8.87646 14.6319 9.17251 14.9743 9.58011C15.3684 10.0493 15.5 10.604 15.5 11C15.5 11.396 15.3684 11.9507 14.9743 12.4199C14.5556 12.9184 13.8993 13.25 13 13.25C12.1651 13.25 11.5352 12.9643 11.1106 12.5152C10.8261 12.2142 10.8395 11.7395 11.1405 11.4549C11.4415 11.1704 11.9162 11.1838 12.2007 11.4848C12.3106 11.601 12.5296 11.75 13 11.75C13.5007 11.75 13.7194 11.5816 13.8257 11.4551C13.9566 11.2993 14 11.104 14 11C14 10.896 13.9566 10.7007 13.8257 10.5449C13.7194 10.4184 13.5007 10.25 13 10.25C12.9243 10.25 12.8512 10.2388 12.7824 10.2179C12.1193 10.1235 11.6181 9.82749 11.2757 9.41989C10.8816 8.95065 10.75 8.396 10.75 8C10.75 7.604 10.8816 7.04935 11.2757 6.58011Z"
              fill="#000000"/>
    </g>

    <g id="HTML5">
        <path d="M7.99999 5C7.69206 5 7.4013 5.14187 7.21179 5.38459C7.02228 5.6273 6.95517 5.94379 7.02985 6.24254L8.02985 10.2425C8.14114 10.6877 8.54113 11 8.99999 11H13.8C13.9105 11 14 11.0895 14 11.2V13.5029C14 13.556 13.9789 13.6069 13.9414 13.6444L12.1414 15.4444C12.0633 15.5225 11.9367 15.5225 11.8586 15.4444L9.7071 13.2929C9.31658 12.9024 8.68341 12.9024 8.29289 13.2929C7.90236 13.6834 7.90236 14.3166 8.29289 14.7071L11.2929 17.7071C11.6834 18.0976 12.3166 18.0976 12.7071 17.7071L15.7071 14.7071C15.8946 14.5196 16 14.2652 16 14V10C16 9.44772 15.5523 9 15 9H9.93693C9.84515 9 9.76516 8.93754 9.7429 8.84851L9.3429 7.24851C9.31134 7.12228 9.40681 7 9.53693 7H16C16.5523 7 17 6.55228 17 6C17 5.44772 16.5523 5 16 5H7.99999Z"
              fill="#0F0F0F"/>
        <path fill-rule="evenodd" clip-rule="evenodd"
              d="M4.30601 1C2.48037 1 1.07798 2.61696 1.33617 4.42426L2.90518 15.4074C3.00667 16.1178 3.35945 16.7683 3.89952 17.2409L10.0245 22.6002C11.1556 23.5899 12.8444 23.5899 13.9755 22.6002L20.1005 17.2409C20.6405 16.7683 20.9933 16.1178 21.0948 15.4074L22.6638 4.42426C22.922 2.61696 21.5196 1 19.694 1H4.30601ZM3.31606 4.14142C3.23 3.53899 3.69746 3 4.30601 3H19.694C20.3025 3 20.77 3.53899 20.6839 4.14142L19.1149 15.1245C19.0811 15.3613 18.9635 15.5782 18.7835 15.7357L12.6585 21.095C12.2815 21.4249 11.7185 21.4249 11.3415 21.095L5.21653 15.7357C5.0365 15.5782 4.91891 15.3613 4.88508 15.1245L3.31606 4.14142Z"
              fill="#0F0F0F"/>
    </g>

    <g id="CSS3">
        <path d="M8 5C7.44772 5 7 5.44772 7 6C7 6.55228 7.44772 7 8 7H12.2344L8.50386 9.13176C8.11017 9.35672 7.91712 9.81842 8.0335 10.2567C8.14988 10.6949 8.54657 11 9 11H13.8C13.9105 11 14 11.0895 14 11.2V13.5029C14 13.556 13.9789 13.6069 13.9414 13.6444L12.1414 15.4444C12.0633 15.5225 11.9367 15.5225 11.8586 15.4444L9.70711 13.2929C9.31658 12.9024 8.68342 12.9024 8.2929 13.2929C7.90237 13.6834 7.90237 14.3166 8.2929 14.7071L11.2929 17.7071C11.6834 18.0976 12.3166 18.0976 12.7071 17.7071L15.7071 14.7071C15.8946 14.5196 16 14.2652 16 14V10C16 9.44772 15.5523 9 15 9H12.7656L16.4961 6.86824C16.8898 6.64328 17.0829 6.18158 16.9665 5.74333C16.8501 5.30509 16.4534 5 16 5H8Z"
              fill="#0F0F0F"/>
        <path fill-rule="evenodd" clip-rule="evenodd"
              d="M4.30602 1C2.48038 1 1.07799 2.61696 1.33617 4.42426L2.90519 15.4074C3.00668 16.1178 3.35946 16.7683 3.89953 17.2409L10.0245 22.6002C11.1556 23.5899 12.8444 23.5899 13.9755 22.6002L20.1005 17.2409C20.6405 16.7683 20.9933 16.1178 21.0948 15.4074L22.6638 4.42426C22.922 2.61696 21.5196 1 19.694 1H4.30602ZM3.31607 4.14142C3.23001 3.53899 3.69747 3 4.30602 3H19.694C20.3025 3 20.77 3.53899 20.6839 4.14142L19.1149 15.1245C19.0811 15.3613 18.9635 15.5782 18.7835 15.7357L12.6585 21.095C12.2815 21.4249 11.7185 21.4249 11.3415 21.095L5.21653 15.7357C5.03651 15.5782 4.91892 15.3613 4.88509 15.1245L3.31607 4.14142Z"
              fill="#0F0F0F"/>
    </g>

    <g id="Git">
        <path fill-rule="evenodd" clip-rule="evenodd"
              d="M13.4142 3.82843C12.6332 3.04738 11.3668 3.04738 10.5858 3.82843L9.91421 4.5L11.482 6.06774C11.6472 6.02356 11.8208 6 12 6C13.1046 6 14 6.89543 14 8C14 8.17916 13.9764 8.35282 13.9323 8.51804L15.982 10.5677C16.1472 10.5236 16.3208 10.5 16.5 10.5C17.6046 10.5 18.5 11.3954 18.5 12.5C18.5 13.6046 17.6046 14.5 16.5 14.5C15.3954 14.5 14.5 13.6046 14.5 12.5C14.5 12.3208 14.5236 12.1472 14.5677 11.982L13 10.4142V15.2676C13.5978 15.6134 14 16.2597 14 17C14 18.1046 13.1046 19 12 19C10.8954 19 10 18.1046 10 17C10 16.2597 10.4022 15.6134 11 15.2676V9.73244C10.4022 9.38663 10 8.74028 10 8C10 7.82084 10.0236 7.64718 10.0677 7.48196L8.5 5.91421L3.82843 10.5858C3.04738 11.3668 3.04738 12.6332 3.82843 13.4142L10.5858 20.1716C11.3668 20.9526 12.6332 20.9526 13.4142 20.1716L20.1716 13.4142C20.9526 12.6332 20.9526 11.3668 20.1716 10.5858L13.4142 3.82843ZM9.17157 2.41421C10.7337 0.852115 13.2663 0.852119 14.8284 2.41422L21.5858 9.17157C23.1479 10.7337 23.1479 13.2663 21.5858 14.8284L14.8284 21.5858C13.2663 23.1479 10.7337 23.1479 9.17157 21.5858L2.41421 14.8284C0.852115 13.2663 0.852119 10.7337 2.41422 9.17157L9.17157 2.41421Z"
              fill="#000000"/>
    </g>

    <g id="React">
        <g clip-path="url(#clip0_20_1854)">
            <path d="M47.8125 25C47.8125 22.0833 44.6875 19.375 39.4792 17.5L38.5417 17.1875V16.7708C39.6875 11.0416 38.8542 6.7708 36.25 5.2083C33.6458 3.6458 29.7917 5.10414 25.625 8.74997L25 9.37497L24.7917 9.16664H24.5833C20.3125 5.2083 16.1458 3.85414 13.5417 5.31247C10.9375 6.7708 10.2083 10.8333 11.25 16.1458C11.3596 16.4838 11.4295 16.8333 11.4583 17.1875L10.3125 17.6041C5.20833 19.375 2.1875 22.0833 2.1875 25C2.1875 27.9166 5.52083 30.8333 10.7292 32.7083L11.4583 32.9166C11.3296 33.2854 11.2593 33.672 11.25 34.0625C10.2083 39.2708 11.1458 43.2291 13.5417 44.6875C15.9375 46.1458 20.3125 44.7916 24.4792 41.1458L25.1042 40.625L25.9375 41.4583C28.8542 43.9583 31.7708 45.3125 34.0625 45.3125C34.8708 45.3309 35.6671 45.1137 36.3542 44.6875C38.9583 43.2291 39.8958 38.9583 38.75 33.5416V33.3333C38.705 33.1619 38.6702 32.988 38.6458 32.8125H38.9583C44.4792 30.8333 47.8125 28.0208 47.8125 25ZM44.7917 25C44.7917 26.25 42.5 28.4375 38.0208 29.8958H37.8125C37.2664 28.2202 36.6051 26.5843 35.8333 25C36.5625 23.3333 37.1875 21.6666 37.7083 20.1041L38.5417 20.3125C42.7083 21.7708 44.7917 23.75 44.7917 25ZM27.9167 39.1666L27.0833 38.5416C28.2761 37.2201 29.3891 35.8287 30.4167 34.375L35.7292 33.5416C35.8333 33.75 35.8333 33.9583 35.9375 34.0625C36.3087 35.9492 36.379 37.8829 36.1458 39.7916C35.9995 40.7045 35.5608 41.5452 34.8958 42.1875C33.8542 42.8125 31.0417 41.9791 27.9167 39.1666ZM26.5625 34.5833L25.1042 36.4583L23.4375 34.5833H26.5625ZM12.2917 20C12.8152 21.7174 13.4771 23.3895 14.2708 25C13.4765 26.646 12.8146 28.3528 12.2917 30.1041L11.6667 29.8958C9.84256 29.3201 8.1454 28.4008 6.66667 27.1875C6.28377 26.9455 5.95605 26.6257 5.7048 26.2488C5.45356 25.872 5.2844 25.4465 5.20833 25C5.20833 23.75 7.29167 21.7708 11.25 20.4166L12.2917 20ZM23.4375 15.4166L25 13.6458L26.5625 15.4166H23.4375ZM34.8958 7.81247C36.0417 8.43747 36.6667 11.5625 35.7292 16.1458C35.734 16.2022 35.7272 16.2591 35.7093 16.3128C35.6914 16.3665 35.6627 16.416 35.625 16.4583L30.4167 15.625C29.3891 14.1712 28.2761 12.7799 27.0833 11.4583L27.7083 10.9375C31.0417 8.0208 33.75 7.18747 34.8958 7.81247ZM17.5 18.8541L16.6667 20.2083L15.9375 21.5625C15.625 20.8333 15.4167 20.1041 15.1042 19.2708L17.5 18.8541ZM15.1042 30.7291C15.4167 30 15.625 29.2708 15.9375 28.4375L16.6667 29.7916L17.5 31.1458L15.1042 30.7291ZM32.5 25C31.9699 26.142 31.3788 27.2548 30.7292 28.3333C30.1042 29.4791 29.375 30.5208 28.75 31.5625H21.25C20.5208 30.4166 19.7917 29.375 19.2708 28.3333C18.6161 27.2577 18.0248 26.1447 17.5 25C18.0054 23.8458 18.5974 22.7315 19.2708 21.6666C19.8693 20.5874 20.5301 19.544 21.25 18.5416C23.7457 18.3334 26.2543 18.3334 28.75 18.5416C29.4792 19.5833 30.1042 20.625 30.7292 21.6666C31.4026 22.7315 31.9946 23.8458 32.5 25ZM33.3333 20.2083L32.5 18.8541L34.8958 19.375C34.6639 20.1208 34.3856 20.8514 34.0625 21.5625L33.3333 20.2083ZM32.5 31.1458L33.3333 29.7916L34.0625 28.3333L35 30.7291L32.5 31.1458ZM22.8125 11.3541H22.9167L19.5833 15.5208L14.375 16.3541C14.2708 16.0416 14.2708 15.8333 14.1667 15.5208C13.3333 11.25 13.9583 8.3333 15 7.81247C15.2766 7.63082 15.61 7.55672 15.9375 7.60414C17.3958 7.60414 19.8958 8.6458 22.7083 11.1458L22.8125 11.3541ZM14.1667 34.5833C14.1857 34.2617 14.256 33.9452 14.375 33.6458L19.6875 34.375C20.689 35.8481 21.8034 37.2412 23.0208 38.5416L22.8125 38.75L22.6042 38.9583C21.184 40.2738 19.5211 41.2999 17.7083 41.9791C17.3107 42.1874 16.875 42.3133 16.4275 42.3491C15.98 42.3849 15.5299 42.3299 15.1042 42.1875C13.9583 41.5625 13.3333 38.75 14.1667 34.5833Z"
                  fill="black"/>
            <path d="M25 20.4166C24.0894 20.3959 23.1932 20.647 22.4259 21.1379C21.6586 21.6287 21.0549 22.3371 20.692 23.1726C20.3291 24.008 20.2233 24.9327 20.3882 25.8285C20.5532 26.7243 20.9812 27.5507 21.6179 28.2022C22.2545 28.8536 23.0709 29.3006 23.9627 29.4861C24.8545 29.6715 25.7813 29.587 26.6249 29.2434C27.4685 28.8998 28.1905 28.3126 28.6989 27.5568C29.2073 26.801 29.4789 25.9108 29.4792 24.9999C29.4795 23.8022 29.0109 22.6519 28.1738 21.7953C27.3366 20.9387 26.1974 20.4438 25 20.4166Z"
                  fill="black"/>
        </g>
        <defs>
            <clipPath id="clip0_20_1854">
                <rect width="50" height="50" fill="white"/>
            </clipPath>
        </defs>
    </g>

    <g id="StyledComponents">
        <path d="M37.2591 6.25L36.9888 7.64963C36.5708 10.3021 36.7221 11.061 37.8682 12.0454L38.9747 12.9546L37.8286 18.0305C37.1438 21.0588 36.3041 23.5968 35.7707 24.4308C35.313 25.1503 34.7796 26.2099 34.6642 26.7791C34.4732 27.4592 33.8245 28.1429 32.8334 28.7478C31.9576 29.2418 30.2385 30.5663 29.0203 31.6294C28.0472 32.4993 27.3769 33.0326 27.0129 33.2617L25.8235 34.196C25.4415 34.8046 25.2253 35.295 25.1424 35.6672C25.0595 36.0503 25.1063 36.3044 25.2289 36.4905C25.3478 36.6695 25.5532 36.7948 25.8343 36.8736C26.1671 36.951 26.5097 36.9788 26.8507 36.9559C27.6222 36.9035 28.3858 36.7691 29.1284 36.555C29.3807 36.487 29.5789 36.4225 29.7519 36.3653C30.0186 36.0395 30.6349 35.4238 31.7269 34.3535C34.6246 31.5149 35.731 29.9613 34.5885 30.3802C34.1669 30.5305 34.3579 30.1511 35.0823 29.3922C36.6104 27.9138 37.4862 25.6801 39.317 18.6748C40.7659 13.1443 40.7659 13.0656 41.8327 13.0656C42.3336 13.0656 43.75 13.1515 43.75 13.1515V6.25H40.4992H37.2591ZM24.4216 18.0806C23.3692 18.0735 21.1058 19.6664 14.3303 25.1611C14.0383 25.8519 14.0131 26.328 14.1464 26.6359C14.2329 26.8471 14.3915 26.9938 14.6114 27.1012C14.8276 27.2086 15.1087 27.2731 15.4187 27.2981C16.035 27.3518 16.763 27.2552 17.3504 27.1406L17.7469 27.0511C17.8826 26.8704 18.0608 26.7254 18.2659 26.6287C18.6839 26.3996 20.4391 24.8103 22.1943 23.1064C25.2829 19.9993 26.0073 18.5961 24.7495 18.1415C24.6463 18.1007 24.5326 18.08 24.4216 18.0806ZM32.336 20.2391C31.4098 20.2642 29.7411 21.3309 26.8831 23.5968C25.4487 24.753 24.5405 25.3759 24.0539 25.5047L22.1654 26.9867C21.4554 28.2753 21.3509 29.0736 21.5383 29.5139C21.5852 29.6225 21.6533 29.7208 21.7387 29.8031C21.8241 29.8855 21.925 29.9502 22.0357 29.9936C22.311 30.1015 22.6046 30.1562 22.9006 30.1546C23.608 30.1471 24.3112 30.0448 24.991 29.8504C25.3453 29.7559 25.6952 29.6461 26.0398 29.521L26.1443 29.4781L26.3353 29.3779C26.6957 28.9161 27.5246 28.0462 28.5626 27.044C31.8423 23.9011 33.5181 21.6674 33.1758 20.8333C33.0208 20.4288 32.7541 20.2248 32.336 20.2391ZM23.5998 24.1051C23.3331 24.1337 22.7349 24.5919 21.6573 25.5298C20.1003 26.8972 18.4028 27.6847 17.8154 27.3339C17.6788 27.3645 17.5419 27.3932 17.4045 27.4198C16.8062 27.5379 16.0602 27.6346 15.3934 27.5809C15.0793 27.562 14.7714 27.4855 14.4852 27.3554C14.2153 27.2328 13.9999 27.0164 13.8797 26.7468C13.7464 26.4247 13.7464 26.0238 13.8978 25.5119L11.5551 27.4234L6.2536 31.7798V38.8424L23.6251 25.2506C23.6217 25.1018 23.6411 24.9533 23.6827 24.8103C23.8161 24.3306 23.8089 24.0872 23.5998 24.1087V24.1051ZM31.0746 26.3925C30.8115 26.3925 30.3718 26.7612 29.669 27.5021C28.714 28.5152 27.2111 29.496 26.4146 29.6964L26.292 29.7609C26.1613 29.8145 26.0291 29.8646 25.8956 29.9112C25.6794 29.9828 25.3982 30.0687 25.0739 30.1546C24.4252 30.33 23.6179 30.4911 22.897 30.4732C22.5572 30.4728 22.2207 30.4072 21.9059 30.2799C21.6093 30.1585 21.3716 29.9275 21.2428 29.6356C21.0338 29.138 21.1167 28.44 21.5744 27.4485L6.25 39.4366V43.75H12.9823L27.2615 32.6103C27.6327 32.2022 28.1914 31.6438 28.9446 30.9457C30.9629 29.0879 31.4206 28.4472 31.4206 27.4986C31.4206 26.7612 31.3377 26.3889 31.0746 26.3889V26.3925ZM34.4732 33.3727L33.2514 34.5826C32.5667 35.2269 31.3449 36.0216 30.5088 36.3617L30.343 36.4333L30.3322 36.4512L30.2961 36.487C30.2637 36.512 30.2493 36.5156 30.2241 36.5263C29.8903 36.6518 29.5512 36.7629 29.2077 36.8592C28.4441 37.08 27.6586 37.218 26.8651 37.2709C26.4899 37.2948 26.1132 37.2622 25.7478 37.1743C25.4307 37.1049 25.1508 36.9213 24.9622 36.6588C24.7892 36.3939 24.7387 36.0395 24.836 35.6028C24.9134 35.2919 25.0284 34.9914 25.1784 34.7079L13.6563 43.75H28.9807L30.8115 41.6667C33.3271 38.7529 34.4732 36.6695 34.4732 34.8869V33.3727Z"
              fill="BLACK"/>
    </g>

    <g id="Redux">
        <path d="M21.7868 21.556C22.8939 21.4433 23.7338 20.505 23.6956 19.3789C23.6575 18.253 22.703 17.3522 21.5577 17.3522H21.4814C20.2978 17.3897 19.3817 18.3656 19.4199 19.5291C19.4581 20.0921 19.6871 20.58 20.0307 20.9178C18.7327 23.4326 16.7475 25.2717 13.7698 26.8106C11.7464 27.8615 9.6468 28.2369 7.54715 27.9742C5.82918 27.749 4.49301 26.9984 3.65301 25.7596C2.43144 23.9205 2.31695 21.9312 3.34773 19.942C4.07312 18.5157 5.21828 17.4647 5.94367 16.9392C5.79098 16.4513 5.56187 15.6256 5.44738 15.0251C-0.0882044 18.9661 0.484491 24.2959 2.16426 26.8106C3.42402 28.6873 5.98187 29.8509 8.80691 29.8509C9.57039 29.8509 10.3339 29.7757 11.0975 29.5882C15.9841 28.6498 19.6872 25.7972 21.7868 21.556ZM28.5059 16.9018C25.6045 13.5613 21.3287 11.7222 16.4421 11.7222H15.8314C15.4878 11.0466 14.7624 10.5961 13.9607 10.5961H13.8843C12.7009 10.6337 11.7848 11.6095 11.8229 12.7731C11.8611 13.8991 12.8154 14.7999 13.9607 14.7999H14.037C14.8769 14.7624 15.6023 14.2369 15.9077 13.5237H16.5948C19.4963 13.5237 22.2449 14.3494 24.7265 15.9634C26.6352 17.202 28.0096 18.816 28.7731 20.7677C29.4221 22.3441 29.3839 23.883 28.6967 25.1967C27.6278 27.1859 25.8336 28.2744 23.4666 28.2744C21.9395 28.2744 20.4889 27.824 19.7253 27.4862C19.3054 27.8615 18.5418 28.462 18.0073 28.8375C19.649 29.5881 21.3287 30.001 22.9321 30.001C26.597 30.001 29.3076 28.0116 30.3384 26.0224C31.4454 23.8454 31.369 20.0921 28.5059 16.9018ZM9.1123 22.1939C9.15051 23.3199 10.1049 24.2206 11.2502 24.2206H11.3266C12.51 24.1832 13.4262 23.2073 13.388 22.0438C13.3499 20.9177 12.3954 20.017 11.2502 20.017H11.1739C11.0975 20.017 10.9829 20.017 10.9067 20.0544C9.3414 17.5022 8.69242 14.7248 8.92152 11.7221C9.0741 9.47006 9.83769 7.51828 11.1739 5.9043C12.2809 4.51555 14.4188 3.83996 15.8696 3.80252C19.9162 3.7274 21.634 8.68179 21.7486 10.6711C22.2449 10.7837 23.0848 11.0465 23.6575 11.2342C23.1993 5.15382 19.3817 2.00098 15.7169 2.00098C12.2809 2.00098 9.1123 4.44067 7.85242 8.04387C6.09637 12.8481 7.24164 17.4647 9.37949 21.1055C9.18871 21.3682 9.0741 21.7811 9.1123 22.194V22.1939Z"
              fill="#000000"/>
    </g>

    <!--APPS-->

    <g id="VSCode">
        <mask id="mask0" mask-type="alpha" maskUnits="userSpaceOnUse" x="0" y="0" width="100" height="100">
            <path fill-rule="evenodd" clip-rule="evenodd"
                  d="M70.9119 99.3171C72.4869 99.9307 74.2828 99.8914 75.8725 99.1264L96.4608 89.2197C98.6242 88.1787 100 85.9892 100 83.5872V16.4133C100 14.0113 98.6243 11.8218 96.4609 10.7808L75.8725 0.873756C73.7862 -0.130129 71.3446 0.11576 69.5135 1.44695C69.252 1.63711 69.0028 1.84943 68.769 2.08341L29.3551 38.0415L12.1872 25.0096C10.589 23.7965 8.35363 23.8959 6.86933 25.2461L1.36303 30.2549C-0.452552 31.9064 -0.454633 34.7627 1.35853 36.417L16.2471 50.0001L1.35853 63.5832C-0.454633 65.2374 -0.452552 68.0938 1.36303 69.7453L6.86933 74.7541C8.35363 76.1043 10.589 76.2037 12.1872 74.9905L29.3551 61.9587L68.769 97.9167C69.3925 98.5406 70.1246 99.0104 70.9119 99.3171ZM75.0152 27.2989L45.1091 50.0001L75.0152 72.7012V27.2989Z"
                  fill="white"/>
        </mask>
        <g mask="url(#mask0)">
            <path d="M96.4614 10.7962L75.8569 0.875542C73.4719 -0.272773 70.6217 0.211611 68.75 2.08333L1.29858 63.5832C-0.515693 65.2373 -0.513607 68.0937 1.30308 69.7452L6.81272 74.754C8.29793 76.1042 10.5347 76.2036 12.1338 74.9905L93.3609 13.3699C96.086 11.3026 100 13.2462 100 16.6667V16.4275C100 14.0265 98.6246 11.8378 96.4614 10.7962Z"
                  fill="#0065A9"/>
            <g filter="url(#filter0_d)">
                <path d="M96.4614 89.2038L75.8569 99.1245C73.4719 100.273 70.6217 99.7884 68.75 97.9167L1.29858 36.4169C-0.515693 34.7627 -0.513607 31.9063 1.30308 30.2548L6.81272 25.246C8.29793 23.8958 10.5347 23.7964 12.1338 25.0095L93.3609 86.6301C96.086 88.6974 100 86.7538 100 83.3334V83.5726C100 85.9735 98.6246 88.1622 96.4614 89.2038Z"
                      fill="#007ACC"/>
            </g>
            <g filter="url(#filter1_d)">
                <path d="M75.8578 99.1263C73.4721 100.274 70.6219 99.7885 68.75 97.9166C71.0564 100.223 75 98.5895 75 95.3278V4.67213C75 1.41039 71.0564 -0.223106 68.75 2.08329C70.6219 0.211402 73.4721 -0.273666 75.8578 0.873633L96.4587 10.7807C98.6234 11.8217 100 14.0112 100 16.4132V83.5871C100 85.9891 98.6234 88.1786 96.4586 89.2196L75.8578 99.1263Z"
                      fill="#1F9CF0"/>
            </g>
            <g style="mix-blend-mode:overlay" opacity="0.25">
                <path fill-rule="evenodd" clip-rule="evenodd"
                      d="M70.8511 99.3171C72.4261 99.9306 74.2221 99.8913 75.8117 99.1264L96.4 89.2197C98.5634 88.1787 99.9392 85.9892 99.9392 83.5871V16.4133C99.9392 14.0112 98.5635 11.8217 96.4001 10.7807L75.8117 0.873695C73.7255 -0.13019 71.2838 0.115699 69.4527 1.44688C69.1912 1.63705 68.942 1.84937 68.7082 2.08335L29.2943 38.0414L12.1264 25.0096C10.5283 23.7964 8.29285 23.8959 6.80855 25.246L1.30225 30.2548C-0.513334 31.9064 -0.515415 34.7627 1.29775 36.4169L16.1863 50L1.29775 63.5832C-0.515415 65.2374 -0.513334 68.0937 1.30225 69.7452L6.80855 74.754C8.29285 76.1042 10.5283 76.2036 12.1264 74.9905L29.2943 61.9586L68.7082 97.9167C69.3317 98.5405 70.0638 99.0104 70.8511 99.3171ZM74.9544 27.2989L45.0483 50L74.9544 72.7012V27.2989Z"
                      fill="url(#paint0_linear)"/>
            </g>
        </g>
        <defs>
            <filter id="filter0_d" x="-8.39411" y="15.8291" width="116.727" height="92.2456"
                    filterUnits="userSpaceOnUse" color-interpolation-filters="sRGB">
                <feFlood flood-opacity="0" result="BackgroundImageFix"/>
                <feColorMatrix in="SourceAlpha" type="matrix" values="0 0 0 0 0 0 0 0 0 0 0 0 0 0 0 0 0 0 127 0"/>
                <feOffset/>
                <feGaussianBlur stdDeviation="4.16667"/>
                <feColorMatrix type="matrix" values="0 0 0 0 0 0 0 0 0 0 0 0 0 0 0 0 0 0 0.25 0"/>
                <feBlend mode="overlay" in2="BackgroundImageFix" result="effect1_dropShadow"/>
                <feBlend mode="normal" in="SourceGraphic" in2="effect1_dropShadow" result="shape"/>
            </filter>
            <filter id="filter1_d" x="60.4167" y="-8.07558" width="47.9167" height="116.151"
                    filterUnits="userSpaceOnUse" color-interpolation-filters="sRGB">
                <feFlood flood-opacity="0" result="BackgroundImageFix"/>
                <feColorMatrix in="SourceAlpha" type="matrix" values="0 0 0 0 0 0 0 0 0 0 0 0 0 0 0 0 0 0 127 0"/>
                <feOffset/>
                <feGaussianBlur stdDeviation="4.16667"/>
                <feColorMatrix type="matrix" values="0 0 0 0 0 0 0 0 0 0 0 0 0 0 0 0 0 0 0.25 0"/>
                <feBlend mode="overlay" in2="BackgroundImageFix" result="effect1_dropShadow"/>
                <feBlend mode="normal" in="SourceGraphic" in2="effect1_dropShadow" result="shape"/>
            </filter>
            <linearGradient id="paint0_linear" x1="49.9392" y1="0.257812" x2="49.9392" y2="99.7423"
                            gradientUnits="userSpaceOnUse">
                <stop stop-color="white"/>
                <stop offset="1" stop-color="white" stop-opacity="0"/>
            </linearGradient>
        </defs>
    </g>

    <g id="WebStorm">
        <defs>
            <linearGradient x1="41.7030965%" y1="1.92488263%" x2="71.8761384%" y2="95.2347418%" id="linearGradient-1">
                <stop stop-color="#00CDD7" offset="28%">

                </stop>
                <stop stop-color="#2086D7" offset="94%">

                </stop>
            </linearGradient>
            <linearGradient x1="22.4892241%" y1="15.1271186%" x2="82.8771552%" y2="84.7627119%" id="linearGradient-2">
                <stop stop-color="#FFF045" offset="14%">

                </stop>
                <stop stop-color="#00CDD7" offset="37%">

                </stop>
            </linearGradient>
            <linearGradient x1="11171%" y1="-27691.7984%" x2="11907%" y2="-28759.6256%" id="linearGradient-3">
                <stop stop-color="#00CDD7" offset="28%">

                </stop>
                <stop stop-color="#2086D7" offset="94%">

                </stop>
            </linearGradient>
        </defs>
        <g>
            <polygon fill="url(#linearGradient-1)"
                     points="34.4 231.2 0 26.8 64 0.4 104.4 24.4 142 4.4 219.6 34.4 176 256">

            </polygon>
            <polygon fill="url(#linearGradient-2)"
                     points="256 86.8 222.8 5.2 163.2 0 70.4 88.8 95.2 203.6 142 236 256 168.4 228 116">

            </polygon>
            <polygon fill="url(#linearGradient-3)" points="204.8 74.4 228 116 256 86.8 235.6 36">

            </polygon>
            <rect fill="#000000" x="48" y="48" width="160" height="160">

            </rect>
            <path d="M63.2,178 L123.2,178 L123.2,188 L63.2,188 L63.2,178 Z M141.6,125.6 L150,115.2 C156,120 162,123.2 169.6,123.2 C175.6,123.2 179.2,120.8 179.2,116.8 C179.2,113.2 176.8,111.2 166,108.4 C152.8,104.8 144.4,101.2 144.4,88 L144.4,87.6 C144.4,75.6 154,67.6 167.2,67.6 C176.04879,67.5627811 184.649333,70.5236236 191.6,76 L184,87.2 C179.170815,83.4261245 173.316089,81.1957528 167.2,80.8 C162,80.8 158.8,83.2 158.8,86.8 C158.8,91.2 161.6,92.8 172.8,95.6 C186,99.2 193.6,104 193.6,115.6 C193.6,128.8 183.6,136.4 169.6,136.4 C159.323641,136.02223 149.468301,132.220884 141.6,125.6 Z M128.8,68.8 L118.8,107.2 L107.6,68.8 L96.4,68.8 L85.2,107.2 L75.2,68.8 L59.6,68.8 L78.8,135.2 L91.2,135.2 L102,96.8 L112.8,135.2 L125.2,135.2 L144.4,68.8 L128.8,68.8 Z"
                  fill="#FFFFFF">

            </path>
        </g>
    </g>

    <g id="GithubDesktop">
        <title>github [#142]</title>
        <desc>Created with Sketch.</desc>
        <defs>

        </defs>
        <g id="Page-1" stroke="none" stroke-width="1" fill="none" fill-rule="evenodd">
            <g id="Dribbble-Light-Preview" transform="translate(-140.000000, -7559.000000)" fill="#000000">
                <g id="icons" transform="translate(56.000000, 160.000000)">
                    <path d="M94,7399 C99.523,7399 104,7403.59 104,7409.253 C104,7413.782 101.138,7417.624 97.167,7418.981 C96.66,7419.082 96.48,7418.762 96.48,7418.489 C96.48,7418.151 96.492,7417.047 96.492,7415.675 C96.492,7414.719 96.172,7414.095 95.813,7413.777 C98.04,7413.523 100.38,7412.656 100.38,7408.718 C100.38,7407.598 99.992,7406.684 99.35,7405.966 C99.454,7405.707 99.797,7404.664 99.252,7403.252 C99.252,7403.252 98.414,7402.977 96.505,7404.303 C95.706,7404.076 94.85,7403.962 94,7403.958 C93.15,7403.962 92.295,7404.076 91.497,7404.303 C89.586,7402.977 88.746,7403.252 88.746,7403.252 C88.203,7404.664 88.546,7405.707 88.649,7405.966 C88.01,7406.684 87.619,7407.598 87.619,7408.718 C87.619,7412.646 89.954,7413.526 92.175,7413.785 C91.889,7414.041 91.63,7414.493 91.54,7415.156 C90.97,7415.418 89.522,7415.871 88.63,7414.304 C88.63,7414.304 88.101,7413.319 87.097,7413.247 C87.097,7413.247 86.122,7413.234 87.029,7413.87 C87.029,7413.87 87.684,7414.185 88.139,7415.37 C88.139,7415.37 88.726,7417.2 91.508,7416.58 C91.513,7417.437 91.522,7418.245 91.522,7418.489 C91.522,7418.76 91.338,7419.077 90.839,7418.982 C86.865,7417.627 84,7413.783 84,7409.253 C84,7403.59 88.478,7399 94,7399"
                          id="github-[#142]">

                    </path>
                </g>
            </g>
        </g>
    </g>

    <!--LOGO-->

    <g id="Logo" transform="translate(0.000000,500.000000) scale(0.100000,-0.100000)"
       fill="#000000" stroke="none">
        <path d="M1043 4117 c-9 -14 3 -19 67 -24 74 -7 120 -35 137 -83 16 -47 18
-1556 2 -1613 -14 -50 -54 -74 -141 -83 -48 -5 -68 -11 -68 -20 0 -12 57 -14
328 -14 180 0 343 -3 363 -6 27 -5 38 -2 42 9 4 10 -17 30 -66 63 -53 36 -78
61 -94 94 l-23 44 0 728 c0 774 0 768 47 811 45 40 267 61 385 36 82 -17 186
-76 254 -144 72 -71 118 -141 166 -249 l34 -79 204 -123 c112 -68 206 -122
208 -119 9 9 -30 162 -59 231 -121 290 -397 486 -764 543 -82 12 -1014 11
-1022 -2z"/>
        <path d="M3294 3682 c-13 -15 -426 -601 -919 -1302 -546 -778 -894 -1282 -892
-1294 3 -28 33 -44 55 -30 13 9 1496 2109 1768 2505 69 101 76 131 32 142 -15
4 -28 -2 -44 -21z"/>
        <path d="M2626 2161 l-26 -41 -1 -557 c0 -391 -4 -571 -12 -603 -14 -52 -61
-90 -112 -90 -53 0 -95 -12 -95 -26 0 -12 114 -14 708 -14 389 0 713 4 721 9
10 7 15 55 21 198 5 104 12 221 15 261 7 61 5 72 -8 72 -9 0 -20 -15 -27 -37
-72 -224 -267 -381 -516 -414 -102 -13 -289 -8 -321 9 -48 26 -48 26 -51 584
l-3 526 -112 68 c-62 37 -122 74 -134 82 -20 13 -23 11 -47 -27z"/>
    </g>

    <g id="FooterLogo" transform="translate(0.000000,500.000000) scale(0.100000,-0.100000)"
       fill="#000000" stroke="none">
        <path d="M1875 3981 c-147 -4 -188 -8 -154 -14 88 -15 84 12 87 -501 2 -309 0
-463 -8 -489 -12 -41 -38 -57 -91 -57 -16 0 -29 -4 -29 -9 0 -6 90 -9 215 -9
118 0 215 4 215 8 0 5 -19 19 -42 32 -23 13 -48 34 -55 48 -10 19 -13 130 -13
463 l0 438 24 24 c30 30 74 38 173 33 133 -6 223 -72 295 -215 18 -36 40 -70
48 -75 8 -4 60 -35 115 -68 71 -43 101 -57 103 -46 5 23 -37 138 -70 188 -43
68 -138 152 -211 187 -133 64 -227 73 -602 62z"/>
        <path d="M2475 2983 c-291 -416 -530 -766 -530 -777 0 -12 6 -21 14 -21 17 0
1082 1515 1079 1535 -2 8 -10 16 -18 17 -10 2 -204 -267 -545 -754z"/>
        <path d="M2606 2836 c-14 -22 -16 -68 -16 -366 l0 -341 -25 -24 c-18 -18 -35
-25 -65 -25 -22 0 -40 -4 -40 -10 0 -12 836 -14 843 -2 2 4 7 77 11 162 l6
155 -29 -62 c-36 -77 -99 -141 -177 -179 -53 -26 -70 -29 -180 -32 -118 -4
-122 -3 -138 19 -14 20 -16 63 -16 329 l0 305 -57 34 c-32 19 -68 41 -79 48
-19 12 -23 11 -38 -11z"/>
        <path d="M10 1115 l0 -125 65 0 c121 0 175 41 175 132 0 83 -48 118 -165 118
l-75 0 0 -125z m164 53 c40 -56 6 -128 -59 -128 l-35 0 0 75 0 75 39 0 c30 0
44 -6 55 -22z"/>
        <path d="M511 1218 c-5 -13 -29 -69 -54 -125 l-46 -103 33 0 c28 0 35 5 40 25
6 23 11 25 66 25 55 0 60 -2 66 -25 5 -21 12 -25 41 -25 19 0 33 4 31 8 -98
240 -99 242 -135 242 -26 0 -36 -5 -42 -22z m61 -87 c9 -22 13 -42 10 -45 -10
-11 -62 -6 -62 6 0 18 23 78 30 78 4 0 14 -18 22 -39z"/>
        <path d="M860 1115 l0 -125 30 0 29 0 3 77 3 77 58 -77 c44 -60 63 -77 82 -77
l25 0 0 125 0 125 -25 0 c-23 0 -24 -3 -27 -77 l-3 -78 -59 78 c-49 65 -63 77
-87 77 l-29 0 0 -125z"/>
        <path d="M1290 1115 l0 -125 35 0 35 0 0 125 0 125 -35 0 -35 0 0 -125z"/>
        <path d="M1550 1115 l0 -125 35 0 35 0 0 125 0 125 -35 0 -35 0 0 -125z"/>
        <path d="M1810 1115 l0 -125 85 0 c84 0 85 0 85 25 0 23 -3 25 -50 25 l-50 0
0 100 0 100 -35 0 -35 0 0 -125z"/>
        <path d="M2390 1115 l0 -125 85 0 c84 0 85 0 85 25 0 24 -3 25 -55 25 l-55 0
0 100 0 100 -30 0 -30 0 0 -125z"/>
        <path d="M2811 1218 c-5 -13 -29 -69 -54 -125 l-46 -103 33 0 c28 0 35 5 40
25 6 23 11 25 66 25 55 0 60 -2 66 -25 5 -21 12 -25 41 -25 19 0 33 4 31 8
-98 240 -99 242 -135 242 -26 0 -36 -5 -42 -22z m61 -87 c9 -22 13 -42 10 -45
-10 -11 -62 -6 -62 6 0 18 23 78 30 78 4 0 14 -18 22 -39z"/>
        <path d="M3160 1115 l0 -125 30 0 29 0 3 82 3 82 26 -65 c21 -51 31 -65 50
-67 21 -2 28 6 48 55 13 32 28 62 33 67 4 6 8 -27 8 -72 0 -81 0 -82 25 -82
l25 0 0 125 0 125 -34 0 c-33 0 -36 -3 -67 -70 -17 -38 -35 -70 -38 -70 -3 0
-19 32 -36 70 -29 68 -31 70 -67 70 l-38 0 0 -125z"/>
        <path d="M3640 1115 l0 -125 100 0 100 0 0 25 c0 24 -2 25 -70 25 -68 0 -70 1
-70 25 0 24 3 25 60 25 57 0 60 1 60 25 0 24 -3 25 -61 25 -60 0 -60 0 -57 28
3 26 6 27 66 30 54 3 62 6 62 22 0 18 -7 20 -95 20 l-95 0 0 -125z"/>
        <path d="M4030 1115 l0 -125 30 0 30 0 0 125 0 125 -30 0 -30 0 0 -125z"/>
        <path d="M4290 1115 l0 -125 30 0 c27 0 30 3 30 33 0 20 8 41 18 51 18 15 21
14 53 -34 29 -43 39 -50 67 -50 17 0 32 2 32 5 0 3 -21 37 -47 75 l-46 71 41
42 c23 24 42 46 42 50 0 4 -13 7 -29 7 -23 0 -42 -13 -80 -52 l-51 -53 0 53
c0 51 -1 52 -30 52 l-30 0 0 -125z"/>
        <path d="M4735 1124 c-28 -65 -51 -121 -53 -126 -2 -4 10 -8 27 -8 24 0 34 6
41 25 9 23 15 25 65 25 49 0 57 -3 67 -25 8 -18 19 -25 40 -25 15 0 28 4 28 8
0 4 -22 59 -48 122 -48 113 -49 115 -83 118 l-35 3 -49 -117z m115 -31 c0 -8
-14 -13 -35 -13 -40 0 -40 0 -18 59 l17 45 18 -40 c10 -21 18 -45 18 -51z"/>
    </g>

    <!--COORDINATORS-->

    <g id="email">
        <path fill-rule="evenodd" clip-rule="evenodd"
              d="M20 4C21.6569 4 23 5.34315 23 7V17C23 18.6569 21.6569 20 20 20H4C2.34315 20 1 18.6569 1 17V7C1 5.34315 2.34315 4 4 4H20ZM19.2529 6H4.74718L11.3804 11.2367C11.7437 11.5236 12.2563 11.5236 12.6197 11.2367L19.2529 6ZM3 7.1688V17C3 17.5523 3.44772 18 4 18H20C20.5523 18 21 17.5523 21 17V7.16882L13.8589 12.8065C12.769 13.667 11.231 13.667 10.1411 12.8065L3 7.1688Z"
              fill="#2157F2"/>
    </g>

    <g id="location">
        <path fill-rule="evenodd" clip-rule="evenodd"
              d="M12.0036 14.0035C14.4889 14.0035 16.5036 11.9887 16.5036 9.50347C16.5036 7.01819 14.4889 5.00347 12.0036 5.00347C9.51831 5.00347 7.50359 7.01819 7.50359 9.50347C7.50359 11.9887 9.51831 14.0035 12.0036 14.0035ZM12.0036 12.0071C10.6209 12.0071 9.5 10.8862 9.5 9.50347C9.5 8.12077 10.6209 6.99988 12.0036 6.99988C13.3863 6.99988 14.5072 8.12077 14.5072 9.50347C14.5072 10.8862 13.3863 12.0071 12.0036 12.0071Z"
              fill="#2157F2"/>
        <path fill-rule="evenodd" clip-rule="evenodd"
              d="M21.272 11.5818C22.5649 5.78816 18.0052 0.00354004 12 0.00354004C5.99649 0.00354004 1.43639 5.7961 2.72816 11.5825C3.72523 16.2821 7.7572 20.8465 10.1636 23.2269C11.1942 24.2463 12.8058 24.2463 13.8364 23.2269C16.2429 20.8464 20.2752 16.2816 21.272 11.5818ZM12 2.00354C16.7124 2.00354 20.3368 6.58981 19.32 11.1462C18.8316 13.3355 17.7359 15.3015 16.4501 17.119C15.1064 19.0184 13.5829 20.6644 12.4299 21.805C12.1786 22.0536 11.8214 22.0536 11.5701 21.805C10.4171 20.6645 8.89379 19.0186 7.55009 17.1193C6.26419 15.3017 5.16886 13.3361 4.68011 11.1467C3.66438 6.59682 7.29012 2.00354 12 2.00354Z"
              fill="#2157F2"/>
    </g>

    <g id="telephone">
        <path fill-rule="evenodd" clip-rule="evenodd"
              d="M1 12.0002C1 16.7302 2.71474 20.2389 3.67316 21.8324C4.22395 22.7482 5.26471 23.1245 6.22852 22.9644L8.75523 22.5448C10.2336 22.2993 11.2243 20.8956 10.9562 19.4262L10.5438 17.166C10.3687 16.2066 9.45305 15.5649 8.48774 15.7253L7.21934 15.9359C6.90298 15.3975 6.37166 14.174 6.37166 12.0002C6.37166 9.82649 6.90298 8.60296 7.21934 8.06458L8.48774 8.27523C9.45305 8.43554 10.3687 7.7939 10.5438 6.83449L10.9562 4.57428C11.2243 3.10492 10.2336 1.7012 8.75523 1.45568L6.22852 1.03606C5.2647 0.875997 4.22395 1.25226 3.67316 2.16804C2.71474 3.76159 1 7.27034 1 12.0002ZM5.20902 20.9153C4.35277 19.4916 2.79055 16.3015 2.79055 12.0002C2.79055 7.69895 4.35277 4.50889 5.20902 3.08521C5.33417 2.87713 5.60095 2.74063 5.93416 2.79596L8.46087 3.21558C8.95367 3.29742 9.28389 3.76533 9.19452 4.25512L8.78211 6.51532L7.42093 6.28927C6.86467 6.19688 6.18151 6.37039 5.7901 6.97502C5.30158 7.72966 4.58111 9.3066 4.58111 12.0002C4.58111 14.6939 5.30158 16.2708 5.7901 17.0255C6.18151 17.6301 6.86467 17.8036 7.42093 17.7112L8.78211 17.4852L9.19452 19.7454C9.28389 20.2352 8.95367 20.7031 8.46087 20.7849L5.93416 21.2045C5.60095 21.2599 5.33417 21.1234 5.20902 20.9153Z"
              fill="#2157F2"/>
        <path d="M21.1961 3.00024C20.5773 3.00024 20.1094 3.56475 20.2137 4.1747C20.5074 5.89294 21 9.19288 21 12.0002C21 14.8076 20.5074 18.1075 20.2137 19.8258C20.1094 20.4357 20.5773 21.0002 21.1961 21.0002C21.6635 21.0002 22.0648 20.6722 22.1464 20.212C22.4242 18.6468 23 15.0356 23 12.0002C23 8.9649 22.4242 5.35371 22.1464 3.78848C22.0648 3.32825 21.6635 3.00024 21.1961 3.00024Z"
              fill="#2157F2"/>
        <path d="M16.3966 6.35122C16.2403 5.69421 16.7346 5.00024 17.41 5.00024C17.7716 5.00024 18.0974 5.20581 18.2102 5.54937C18.5035 6.4433 19 8.47696 19 12.0002C19 15.5235 18.5035 17.5572 18.2102 18.4511C18.0974 18.7947 17.7716 19.0002 17.41 19.0002C16.7346 19.0002 16.2403 18.3063 16.3966 17.6493C16.6758 16.4761 17 14.5623 17 12.0002C17 9.43814 16.6758 7.52438 16.3966 6.35122Z"
              fill="#2157F2"/>
        <path d="M13.5924 7.00024C12.8608 7.00024 12.3406 7.79197 12.5342 8.49746C12.7723 9.36494 13 10.5687 13 12.0002C13 13.4317 12.7723 14.6355 12.5342 15.503C12.3406 16.2085 12.8608 17.0002 13.5924 17.0002C13.8534 17.0002 14.1014 16.8921 14.2238 16.6616C14.5186 16.1067 15 14.7755 15 12.0002C15 9.22495 14.5186 7.89383 14.2238 7.33888C14.1014 7.10837 13.8534 7.00024 13.5924 7.00024Z"
              fill="#2157F2"/>
    </g>

    <!--SOCIALS-->
    <g id="Instagram">
        <path fill-rule="evenodd" clip-rule="evenodd"
              d="M12 18C15.3137 18 18 15.3137 18 12C18 8.68629 15.3137 6 12 6C8.68629 6 6 8.68629 6 12C6 15.3137 8.68629 18 12 18ZM12 16C14.2091 16 16 14.2091 16 12C16 9.79086 14.2091 8 12 8C9.79086 8 8 9.79086 8 12C8 14.2091 9.79086 16 12 16Z"
              fill="currentColor"/>
        <path d="M18 5C17.4477 5 17 5.44772 17 6C17 6.55228 17.4477 7 18 7C18.5523 7 19 6.55228 19 6C19 5.44772 18.5523 5 18 5Z"
              fill="currentColor"/>
        <path fill-rule="evenodd" clip-rule="evenodd"
              d="M1.65396 4.27606C1 5.55953 1 7.23969 1 10.6V13.4C1 16.7603 1 18.4405 1.65396 19.7239C2.2292 20.8529 3.14708 21.7708 4.27606 22.346C5.55953 23 7.23969 23 10.6 23H13.4C16.7603 23 18.4405 23 19.7239 22.346C20.8529 21.7708 21.7708 20.8529 22.346 19.7239C23 18.4405 23 16.7603 23 13.4V10.6C23 7.23969 23 5.55953 22.346 4.27606C21.7708 3.14708 20.8529 2.2292 19.7239 1.65396C18.4405 1 16.7603 1 13.4 1H10.6C7.23969 1 5.55953 1 4.27606 1.65396C3.14708 2.2292 2.2292 3.14708 1.65396 4.27606ZM13.4 3H10.6C8.88684 3 7.72225 3.00156 6.82208 3.0751C5.94524 3.14674 5.49684 3.27659 5.18404 3.43597C4.43139 3.81947 3.81947 4.43139 3.43597 5.18404C3.27659 5.49684 3.14674 5.94524 3.0751 6.82208C3.00156 7.72225 3 8.88684 3 10.6V13.4C3 15.1132 3.00156 16.2777 3.0751 17.1779C3.14674 18.0548 3.27659 18.5032 3.43597 18.816C3.81947 19.5686 4.43139 20.1805 5.18404 20.564C5.49684 20.7234 5.94524 20.8533 6.82208 20.9249C7.72225 20.9984 8.88684 21 10.6 21H13.4C15.1132 21 16.2777 20.9984 17.1779 20.9249C18.0548 20.8533 18.5032 20.7234 18.816 20.564C19.5686 20.1805 20.1805 19.5686 20.564 18.816C20.7234 18.5032 20.8533 18.0548 20.9249 17.1779C20.9984 16.2777 21 15.1132 21 13.4V10.6C21 8.88684 20.9984 7.72225 20.9249 6.82208C20.8533 5.94524 20.7234 5.49684 20.564 5.18404C20.1805 4.43139 19.5686 3.81947 18.816 3.43597C18.5032 3.27659 18.0548 3.14674 17.1779 3.0751C16.2777 3.00156 15.1132 3 13.4 3Z"
              fill="currentColor"/>
    </g>

    <g id="Telegram">
        <path fill-rule="evenodd" clip-rule="evenodd"
              d="M23.1117 4.49449C23.4296 2.94472 21.9074 1.65683 20.4317 2.227L2.3425 9.21601C0.694517 9.85273 0.621087 12.1572 2.22518 12.8975L6.1645 14.7157L8.03849 21.2746C8.13583 21.6153 8.40618 21.8791 8.74917 21.968C9.09216 22.0568 9.45658 21.9576 9.70712 21.707L12.5938 18.8203L16.6375 21.8531C17.8113 22.7334 19.5019 22.0922 19.7967 20.6549L23.1117 4.49449ZM3.0633 11.0816L21.1525 4.0926L17.8375 20.2531L13.1 16.6999C12.7019 16.4013 12.1448 16.4409 11.7929 16.7928L10.5565 18.0292L10.928 15.9861L18.2071 8.70703C18.5614 8.35278 18.5988 7.79106 18.2947 7.39293C17.9906 6.99479 17.4389 6.88312 17.0039 7.13168L6.95124 12.876L3.0633 11.0816ZM8.17695 14.4791L8.78333 16.6015L9.01614 15.321C9.05253 15.1209 9.14908 14.9366 9.29291 14.7928L11.5128 12.573L8.17695 14.4791Z"
              fill="currentColor"/>
    </g>

    <!--MODE-->

    <g id="Moon">
        <path d="M3.32031 11.6835C3.32031 16.6541 7.34975 20.6835 12.3203 20.6835C16.1075 20.6835 19.3483 18.3443 20.6768 15.032C19.6402 15.4486 18.5059 15.6834 17.3203 15.6834C12.3497 15.6834 8.32031 11.654 8.32031 6.68342C8.32031 5.50338 8.55165 4.36259 8.96453 3.32996C5.65605 4.66028 3.32031 7.89912 3.32031 11.6835Z"
              stroke="#000000" stroke-width="2" stroke-linecap="round" stroke-linejoin="round"/>

    </g>

    <!--FOOTER-->

    <g id="FooterWave">
        <path d="M-1201.13 44.7823C-1201.13 44.7823 -1099.63 4.58005 -959.747 1.09382C-795.61 -2.99693 -797.448 43.8551 -631.47 44.7823C-458.116 45.7507 -452.498 1.45838 -279.055 1.09382C-102.606 0.722937 -93.2496 46.1381 83.0148 44.7823C248.904 43.5064 245.484 2.62348 411.292 1.09382C589.739 -0.552463 601.88 45.1485 780.603 44.7823C956.299 44.4224 964.581 1.62913 1140.26 1.09382C1320.49 0.544628 1334.92 47.4908 1514.4 44.7823C1674.03 42.3734 1664.41 4.47381 1823.36 1.09382C2012.07 -2.91869 2038.61 44.0492 2228.88 44.7823C2426.27 45.5428 2458.7 0.593025 2656.13 1.09382C2848.79 1.58254 2876.48 43.1002 3068.89 44.7823C3278.92 46.6186 3326.67 -3.87903 3534.75 1.09382C3715.81 5.42086 3889.58 50.6335 3889.58 50.6335V71.5385V152.59H-1201.13V44.7823Z"
              fill="#A5BBF8"/>
    </g>
</svg>