<svg width="768" height="87" viewBox="0 0 768 87" fill="none" xmlns="http://www.w3.org/2000/svg">
<path d="M-640.601 25.3323C-640.601 25.3323 -586.468 2.33593 -511.865 0.341741C-424.325 -1.99823 -425.306 24.8019 -336.784 25.3323C-244.328 25.8862 -241.332 0.550275 -148.829 0.341741C-54.7231 0.129592 -49.7331 26.1078 44.2747 25.3323C132.749 24.6024 130.925 1.21673 219.356 0.341741C314.528 -0.599958 321.003 25.5417 416.322 25.3323C510.026 25.1264 514.443 0.64795 608.138 0.341741C704.261 0.0275964 711.956 26.8816 807.679 25.3323C892.817 23.9544 887.684 2.27515 972.461 0.341741C1073.1 -1.95348 1087.26 24.913 1188.74 25.3323C1294.01 25.7673 1311.31 0.0552799 1416.6 0.341741C1519.36 0.621302 1534.12 24.3701 1636.74 25.3323C1748.76 26.3827 1774.22 -2.50281 1885.2 0.341741C1981.76 2.81688 2074.44 28.6792 2074.44 28.6792V40.6372V87H-640.601V25.3323Z" fill="#A5BBF8"/>
</svg>
